<?xml version="1.0" ?>
<!DOCTYPE svg  PUBLIC '-//W3C//DTD SVG 1.1//EN'  'http://www.w3.org/Graphics/SVG/1.1/DTD/svg11.dtd'>
<!-- Uploaded to: SVG Repo, www.svgrepo.com, Generator: SVG Repo Mixer Tools -->
<svg width="800px" height="800px" viewBox="0 0 512 512" enable-background="new 0 0 512 512" id="Daughter" version="1.1" xml:space="preserve" xmlns="http://www.w3.org/2000/svg" xmlns:xlink="http://www.w3.org/1999/xlink">
<circle cx="113.5" cy="106.224" fill="#19929B" r="20.5"/>
<path d="M101.836,48.062c13.436,13.435,13.669,35.829,0,49.498c-13.668,13.668-36.063,13.435-49.497,0  c-0.707-0.707-0.884-1.592-0.707-2.122c0,0,47.376-47.376,48.083-48.083C100.11,46.959,100.422,46.648,101.836,48.062z" fill="#5B412C"/>
<circle cx="398.5" cy="106.224" fill="#19929B" r="20.5"/>
<path d="M410.164,48.062c-13.436,13.435-13.669,35.829,0,49.498c13.668,13.668,36.063,13.435,49.497,0  c0.707-0.707,0.884-1.592,0.707-2.122c0,0-47.376-47.376-48.083-48.083C411.89,46.959,411.578,46.648,410.164,48.062z" fill="#5B412C"/>
<circle cx="256" cy="175.521" fill="#5B412C" r="150.501"/>
<path d="M367.626,440.221c0,62.344-225.763,62.344-225.763,0c0-62.342,50.538-112.881,112.881-112.881  S367.626,377.879,367.626,440.221z" fill="#0A717F"/>
<path d="M254.745,327.34c-55.722,0-102.008,40.376-111.213,93.467c19.42,50.416,203.007,50.416,222.426,0  C356.754,367.716,310.467,327.34,254.745,327.34z" fill="#19929B"/>
<path d="M141.987,440.221c0,17.054,16.9,29.436,41.443,37.159V352.843  C158.14,373.543,141.987,404.989,141.987,440.221z" fill="#ED9572"/>
<path d="M367.432,440.221c0-31.801-13.158-60.522-34.318-81.038v115.745  C353.744,467.138,367.432,455.57,367.432,440.221z" fill="#ED9572"/>
<path d="M143.656,420.807c4.819,12.511,19.754,21.914,39.775,28.215v-96.183  C162.895,369.649,148.383,393.546,143.656,420.807z" fill="#FFBF94"/>
<path d="M365.764,420.807c-4.159-23.99-15.897-45.376-32.649-61.62v87.376  C349.518,440.365,361.535,431.783,365.764,420.807z" fill="#FFBF94"/>
<path d="M314.432,401.021c0,27.614-22.386,50-50,50h-18c-27.614,0-50-22.386-50-50v-54c0-27.614,22.386-50,50-50h18  c27.614,0,50,22.386,50,50V401.021z" fill="#FFFFFF"/>
<g>
<path d="M246.432,441.021c-22.056,0-40-17.943-40-40v-54c0-22.057,17.944-40,40-40h18c22.056,0,40,17.943,40,40v54   c0,22.057-17.944,40-40,40H246.432z" fill="#EF5B7B"/>
</g>
<path d="M255.547,298.75c-19.941,0-36.826,13.057-42.592,31.084c5.766,18.027,22.65,31.083,42.592,31.083  s36.827-13.056,42.593-31.083C292.374,311.807,275.488,298.75,255.547,298.75z" fill="#D1375F"/>
<circle cx="116.278" cy="224.042" fill="#FFBF94" r="36.537"/>
<path d="M116.277,246.399c-17.752,0-32.541-12.662-35.843-29.447c-0.451,2.294-0.693,4.663-0.693,7.089  c0,20.178,16.358,36.537,36.536,36.537c20.18,0,36.537-16.358,36.537-36.537c0-2.426-0.242-4.795-0.693-7.089  C148.82,233.737,134.03,246.399,116.277,246.399z" fill="#ED9572"/>
<circle cx="394.816" cy="224.042" fill="#FFBF94" r="36.537"/>
<path d="M394.816,246.399c-17.753,0-32.542-12.662-35.844-29.447c-0.451,2.294-0.693,4.663-0.693,7.089  c0,20.178,16.358,36.537,36.537,36.537s36.536-16.358,36.536-36.537c0-2.426-0.242-4.795-0.693-7.089  C427.358,233.737,412.568,246.399,394.816,246.399z" fill="#ED9572"/>
<path d="M383.997,169.509C381.14,101.284,328.226,46.844,256.03,46.813v-0.001c-0.01,0-0.02,0-0.029,0  s-0.02,0-0.031,0v0.001c-72.193,0.031-125.107,54.471-127.965,122.696h-0.125v78.526h0.125  C130.86,316.26,188.134,348.9,255.97,348.92l0,0c0.012,0,0.021,0,0.031,0s0.02,0,0.029,0l0,0  c67.836-0.02,125.109-32.66,127.967-100.884h0.123v-78.526H383.997z" fill="#FFBF94"/>
<circle cx="173.592" cy="258.396" fill="#F97A7A" r="30.538"/>
<circle cx="337.188" cy="258.396" fill="#F97A7A" r="30.538"/>
<circle cx="207.841" cy="204.955" fill="#493E2F" r="17.45"/>
<circle cx="302.94" cy="204.955" fill="#493E2F" r="17.45"/>
<circle cx="256" cy="264.521" fill="#96914B" r="30.5"/>
<circle cx="256" cy="264.521" fill="#FFFFFF" r="20.5"/>
<path d="M256,275.021c-9.594,0-17.625-6.6-19.861-15.5c-0.402,1.604-0.639,3.271-0.639,5  c0,11.322,9.178,20.5,20.5,20.5s20.5-9.178,20.5-20.5c0-1.729-0.238-3.396-0.641-5C273.625,268.422,265.594,275.021,256,275.021z" fill="#E5E5E5"/>
</svg>