<?xml version="1.0" ?><!DOCTYPE svg  PUBLIC '-//W3C//DTD SVG 1.1//EN'  'http://www.w3.org/Graphics/SVG/1.1/DTD/svg11.dtd'><!-- Uploaded to: SVG Repo, www.svgrepo.com, Generator: SVG Repo Mixer Tools -->
<svg width="800px" height="800px" viewBox="0 0 512 512" enable-background="new 0 0 512 512" id="Sister" version="1.1" xml:space="preserve" xmlns="http://www.w3.org/2000/svg" xmlns:xlink="http://www.w3.org/1999/xlink"><path d="M429.639,404.189c8.939-4.113,15.15-13.143,15.15-23.627c0-12.37-8.642-22.715-20.215-25.346  c6.208-4.752,10.215-12.234,10.215-20.654c0-14.359-11.641-26-26-26c-0.235,0-0.468,0.011-0.701,0.018  c6.483-4.729,10.701-12.379,10.701-21.018c0-14.359-11.641-26-26-26s-26,11.641-26,26s11.641,26,26,26  c0.234,0,0.467-0.012,0.701-0.018c-6.484,4.728-10.701,12.378-10.701,21.018c0,12.369,8.641,22.714,20.214,25.346  c-6.207,4.751-10.214,12.232-10.214,20.654c0,10.616,6.366,19.74,15.487,23.779c-9.978,4.325-17.229,14.427-18.194,26.471  c-0.119,1.48,0.979,2.75,2.355,2.75h53.41c1.378,0,2.475-1.27,2.354-2.75C447.226,418.621,439.807,408.423,429.639,404.189z" fill="#5B412C"/><path d="M119.212,261.563c-14.359,0-26,11.641-26,26c0,8.639,4.218,16.289,10.701,21.018  c-0.233-0.007-0.466-0.018-0.701-0.018c-14.359,0-26,11.641-26,26c0,8.42,4.007,15.902,10.215,20.654  c-11.573,2.631-20.215,12.976-20.215,25.346c0,10.484,6.21,19.514,15.15,23.627c-10.168,4.233-17.587,14.432-18.565,26.623  c-0.118,1.48,0.979,2.75,2.356,2.75h53.41c1.378,0,2.475-1.27,2.355-2.75c-0.966-12.044-8.217-22.146-18.194-26.471  c9.121-4.039,15.487-13.163,15.487-23.779c0-8.422-4.007-15.903-10.214-20.654c11.573-2.632,20.214-12.977,20.214-25.346  c0-8.64-4.217-16.29-10.701-21.018c0.234,0.006,0.467,0.018,0.701,0.018c14.359,0,26-11.641,26-26S133.572,261.563,119.212,261.563z  " fill="#5B412C"/><circle cx="116.731" cy="235.501" fill="#FFBF94" r="36.537"/><path d="M116.732,257.858c-17.753,0-32.542-12.662-35.844-29.447c-0.451,2.294-0.693,4.663-0.693,7.09  c0,20.178,16.358,36.536,36.537,36.536s36.536-16.358,36.536-36.536c0-2.427-0.242-4.796-0.693-7.09  C149.274,245.196,134.484,257.858,116.732,257.858z" fill="#ED9572"/><circle cx="395.27" cy="235.501" fill="#FFBF94" r="36.537"/><path d="M395.27,257.858c-17.752,0-32.542-12.662-35.843-29.447c-0.451,2.294-0.693,4.663-0.693,7.09  c0,20.178,16.357,36.536,36.536,36.536s36.537-16.358,36.537-36.536c0-2.427-0.242-4.796-0.693-7.09  C427.812,245.196,413.021,257.858,395.27,257.858z" fill="#ED9572"/><circle cx="256.001" cy="164.063" fill="#5B412C" r="150.5"/><path d="M368.882,451.68c0,62.344-225.762,62.344-225.762,0c0-62.342,50.538-112.881,112.881-112.881  C318.344,338.799,368.882,389.338,368.882,451.68z" fill="#D1375F"/><path d="M256,338.799c-55.722,0-102.008,40.376-111.212,93.467c19.419,50.416,203.005,50.416,222.424,0  C358.009,379.175,311.723,338.799,256,338.799z" fill="#EF5B7B"/><circle cx="256.001" cy="354.926" fill="#FFBF94" r="44.716"/><path d="M256,310.209c-19.94,0-36.826,13.057-42.592,31.084c5.766,18.027,22.651,31.083,42.592,31.083  c19.941,0,36.827-13.056,42.592-31.083C292.827,323.266,275.941,310.209,256,310.209z" fill="#ED9572"/><path d="M383.997,180.969c-2.857-68.226-55.772-122.666-127.966-122.696v-0.001c-0.01,0-0.02,0-0.03,0  c-0.01,0-0.02,0-0.03,0v0.001c-72.193,0.03-125.108,54.471-127.966,122.696h-0.124v78.526h0.124  c2.857,68.224,60.131,100.864,127.966,100.884l0,0c0.011,0,0.021,0,0.03,0c0.011,0,0.021,0,0.03,0l0,0  c67.835-0.02,125.109-32.66,127.966-100.884h0.124v-78.526H383.997z" fill="#FFBF94"/><path d="M143.12,451.68c0,17.054,16.9,29.436,41.444,37.159V364.302C159.272,385.002,143.12,416.448,143.12,451.68z" fill="#E89C21"/><path d="M368.882,451.68c0-31.801-13.157-60.522-34.318-81.038v115.745  C355.194,478.597,368.882,467.029,368.882,451.68z" fill="#E89C21"/><path d="M144.789,432.266c4.819,12.511,19.754,21.914,39.775,28.215v-96.183  C164.026,381.108,149.514,405.005,144.789,432.266z" fill="#FFC866"/><path d="M367.213,432.266c-4.159-23.99-15.897-45.376-32.649-61.62v87.376  C350.968,451.824,362.985,443.242,367.213,432.266z" fill="#FFC866"/><circle cx="174.203" cy="269.855" fill="#F97A7A" r="30.538"/><circle cx="337.799" cy="269.855" fill="#F97A7A" r="30.538"/><circle cx="208.045" cy="216.414" fill="#493E2F" r="17.45"/><circle cx="304.145" cy="216.414" fill="#493E2F" r="17.45"/><path d="M256.545,293.734c-9.077,0-18.154-3.455-25.064-10.365c-2.343-2.344-2.343-6.143,0-8.486  c2.343-2.342,6.143-2.342,8.485,0c9.144,9.145,24.018,9.143,33.16,0c2.343-2.342,6.143-2.342,8.485,0  c2.343,2.344,2.343,6.143,0,8.486C274.7,290.279,265.623,293.734,256.545,293.734z" fill="#F97A7A"/><path d="M128.307,183.563c-6.588,0-11.832-6.066-11.264-13.149C123.215,93.44,183.072,33.041,256,33.041  c72.929,0,132.786,60.399,138.958,137.372c0.568,7.083-4.676,13.149-11.265,13.149H128.307z" fill="#7C4E2E"/></svg>