<?xml version="1.0" ?><!DOCTYPE svg  PUBLIC '-//W3C//DTD SVG 1.1//EN'  'http://www.w3.org/Graphics/SVG/1.1/DTD/svg11.dtd'><!-- Uploaded to: SVG Repo, www.svgrepo.com, Generator: SVG Repo Mixer Tools -->
<svg width="800px" height="800px" viewBox="0 0 512 512" enable-background="new 0 0 512 512" id="Uncle" version="1.1" xml:space="preserve" xmlns="http://www.w3.org/2000/svg" xmlns:xlink="http://www.w3.org/1999/xlink"><path d="M368.882,429.325c0,62.344-225.763,62.344-225.763,0c0-62.342,50.538-112.881,112.881-112.881  S368.882,366.983,368.882,429.325z" fill="#FFC866"/><path d="M272.563,346.173l-16.065,13.297c-0.189,0.156-0.354,0.325-0.498,0.503  c-0.143-0.178-0.308-0.347-0.497-0.503l-16.065-13.297c-2.492-2.063-6.753-0.602-6.753,2.314v26.593  c0,2.917,4.261,4.377,6.753,2.314l16.065-13.296c0.189-0.156,0.354-0.326,0.497-0.504c0.144,0.178,0.309,0.348,0.498,0.504  l16.065,13.296c2.491,2.063,6.752,0.603,6.752-2.314v-26.593C279.315,345.571,275.055,344.11,272.563,346.173z" fill="#FFFFFF"/><circle cx="116.731" cy="213.146" fill="#FFBF94" r="36.537"/><path d="M116.731,235.504c-17.753,0-32.542-12.663-35.844-29.448c-0.451,2.294-0.693,4.663-0.693,7.089  c0,20.178,16.358,36.537,36.537,36.537s36.536-16.358,36.536-36.537c0-2.426-0.242-4.795-0.693-7.089  C149.273,222.842,134.483,235.504,116.731,235.504z" fill="#ED9572"/><circle cx="395.269" cy="213.146" fill="#FFBF94" r="36.537"/><path d="M395.27,235.504c-17.752,0-32.542-12.663-35.844-29.448c-0.451,2.294-0.693,4.663-0.693,7.089  c0,20.178,16.358,36.537,36.537,36.537s36.536-16.358,36.536-36.537c0-2.426-0.242-4.795-0.693-7.089  C427.812,222.842,413.021,235.504,395.27,235.504z" fill="#ED9572"/><path d="M383.997,158.614C381.14,90.388,328.225,35.948,256.031,35.918v-0.001c-0.011,0-0.021,0-0.031,0  c-0.01,0-0.02,0-0.029,0v0.001c-72.194,0.03-125.109,54.47-127.967,122.696h-0.124v78.526h0.124  c2.856,68.224,60.13,100.865,127.967,100.884l0,0c0.01,0,0.02,0,0.029,0c0.011,0,0.021,0,0.031,0l0,0  c67.835-0.02,125.108-32.66,127.966-100.884h0.124v-78.526H383.997z" fill="#FFBF94"/><path d="M368.945,429.325c0-39.68-20.478-74.572-51.438-94.701L256,431.278l-61.508-96.654  c-30.959,20.129-51.437,55.021-51.437,94.701c0,30.723,54.828,46.305,110.444,46.746l0,0c0.153,0.002,0.307,0.002,0.46,0.002  c0.681,0.005,1.36,0.009,2.04,0.009c0.681,0,1.36-0.004,2.041-0.009c0.153,0,0.307,0,0.459-0.002l0,0  C314.117,475.63,368.945,460.048,368.945,429.325z" fill="#0A717F"/><path d="M367.275,409.911c-5.46-31.498-23.974-58.52-49.766-75.29L256,431.278l-61.51-96.657  c-25.791,16.771-44.305,43.792-49.766,75.29c9.67,25.104,60.046,37.706,110.59,37.809c0.229,0.001,0.457,0.002,0.686,0.002  c0.229,0,0.458-0.001,0.688-0.002C307.23,447.617,357.606,435.016,367.275,409.911z" fill="#19929B"/><circle cx="256" cy="383.208" fill="#FFFFFF" r="8"/><path d="M228,82.208h-59c-12.649,0-23-10.35-23-23l0,0c0-12.65,10.351-23,23-23h59c12.65,0,23,10.35,23,23l0,0  C251,71.857,240.65,82.208,228,82.208z" fill="#7C4E2E"/><path d="M343,82.208h-59c-12.649,0-23-10.35-23-23l0,0c0-12.65,10.351-23,23-23h59c12.65,0,23,10.35,23,23l0,0  C366,71.857,355.65,82.208,343,82.208z" fill="#7C4E2E"/><circle cx="174.202" cy="247.501" fill="#F97A7A" r="30.538"/><circle cx="337.799" cy="247.501" fill="#F97A7A" r="30.538"/><circle cx="208.601" cy="194.06" fill="#493E2F" r="17.45"/><circle cx="303.7" cy="194.06" fill="#493E2F" r="17.45"/><path d="M256.15,271.38c-9.078,0-18.155-3.455-25.065-10.365c-2.344-2.344-2.344-6.143,0-8.486  c2.343-2.343,6.143-2.343,8.485,0c9.144,9.144,24.019,9.142,33.16,0c2.343-2.343,6.142-2.343,8.485,0  c2.343,2.343,2.343,6.142,0,8.486C274.305,267.925,265.228,271.38,256.15,271.38z" fill="#F97A7A"/><path d="M227.657,265.29c-3.198,0-5.702-2.871-5.142-6.021c2.844-15.997,16.82-28.144,33.635-28.144  s30.791,12.146,33.635,28.144c0.56,3.149-1.943,6.021-5.143,6.021H227.657z" fill="#493E2F"/></svg>