<?xml version="1.0" ?>
<!DOCTYPE svg  PUBLIC '-//W3C//DTD SVG 1.1//EN'  'http://www.w3.org/Graphics/SVG/1.1/DTD/svg11.dtd'>
<!-- Uploaded to: SVG Repo, www.svgrepo.com, Generator: SVG Repo Mixer Tools -->
<svg width="800px" height="800px" viewBox="0 0 512 512" enable-background="new 0 0 512 512" id="Father" version="1.1" xml:space="preserve" xmlns="http://www.w3.org/2000/svg" xmlns:xlink="http://www.w3.org/1999/xlink">
<path d="M316.801,20.896L316.801,20.896c-63.012,0.333-63.356,15.333-63.184,15.333s2.172-15-63.185-15.333l0,0  c-54.552,0-99.185,44.967-99.185,99.518c0,0,0,115.909,0,121.815v22c0,10.449,8.55,19,19,19c0.683,0,1.355-0.041,2.019-0.111  c-3.553-1.754-6.019-5.41-6.019-9.622v-14.533c0-3.652,1.854-6.882,4.663-8.82c0.759,1.017,1.54,2.016,2.337,3.002v21.084  c0,10.449,8.55,19,19,19c0.683,0,1.355-0.041,2.019-0.111c-3.553-1.754-6.019-5.41-6.019-9.622v-15.335  c17.042,13.785,38.691,22.068,62.185,22.068l0,0c42.27,0,84.1,0,126.369,0l0,0c23.494,0,45.143-8.283,62.186-22.068v15.335  c0,4.212-2.467,7.868-6.02,9.622c0.664,0.07,1.336,0.111,2.02,0.111c10.449,0,19-8.551,19-19v-21.084  c0.795-0.987,1.578-1.986,2.336-3.002c2.809,1.938,4.664,5.168,4.664,8.82v14.533c0,4.212-2.467,7.868-6.02,9.622  c0.664,0.07,1.336,0.111,2.02,0.111c10.449,0,19-8.551,19-19v-22c0-5.906,0-121.815,0-121.815  C415.986,65.862,371.352,20.896,316.801,20.896z" fill="#5B412C"/>
<g>
<defs>
<path d="M366.498,444.347c0,62.344-225.764,62.344-225.764,0c0-62.342,50.539-112.881,112.882-112.881    C315.959,331.466,366.498,382.005,366.498,444.347z" id="SVGID_1_"/>
</defs>
<use fill="#FFC866" overflow="visible" xlink:href="#SVGID_1_"/>
<clipPath id="SVGID_2_">
<use overflow="visible" xlink:href="#SVGID_1_"/>
</clipPath>
<rect clip-path="url(#SVGID_2_)" fill="#EF5B7B" height="15.625" width="231.001" x="138.179" y="382.229"/>
<rect clip-path="url(#SVGID_2_)" fill="#EF5B7B" height="15.625" width="231.001" x="138.179" y="352.229"/>
<rect clip-path="url(#SVGID_2_)" fill="#EF5B7B" height="15.625" width="231.001" x="138.179" y="410.354"/>
<rect clip-path="url(#SVGID_2_)" fill="#EF5B7B" height="15.625" width="231.001" x="138.179" y="438.479"/>
<rect clip-path="url(#SVGID_2_)" fill="#EF5B7B" height="15.625" width="231.001" x="138.179" y="466.604"/>
</g>
<circle cx="253.616" cy="347.593" fill="#FFBF94" r="44.716"/>
<path d="M253.617,302.876c-19.942,0-36.827,13.057-42.593,31.084c5.767,18.027,22.651,31.084,42.593,31.084  c19.94,0,36.827-13.057,42.592-31.084C290.443,315.933,273.557,302.876,253.617,302.876z" fill="#ED9572"/>
<path d="M296.83,343.599l-41.344,41.344c-0.029,0.029-0.051,0.063-0.08,0.094l0,0  c-0.917,0.946-1.492,2.027-1.789,3.146c-0.297-1.119-0.873-2.2-1.791-3.146l0,0c-0.029-0.031-0.05-0.064-0.08-0.094l-41.344-41.344  c-4.534-4.533-12.286-1.322-12.286,5.09v31.344v10c0,3.975,3.222,7.197,7.197,7.197h41.344c3.589,0,6.172-2.43,6.959-5.364  c0.786,2.935,3.37,5.364,6.959,5.364h41.344c3.975,0,7.197-3.223,7.197-7.197v-10v-31.344  C309.117,342.276,301.363,339.065,296.83,343.599z" fill="#FFFFFF"/>
<circle cx="116.731" cy="228.167" fill="#FFBF94" r="36.537"/>
<path d="M116.731,250.526c-17.753,0-32.543-12.662-35.844-29.447c-0.451,2.293-0.693,4.663-0.693,7.089  c0,20.178,16.358,36.537,36.537,36.537s36.536-16.358,36.536-36.537c0-2.426-0.242-4.795-0.693-7.089  C149.273,237.864,134.483,250.526,116.731,250.526z" fill="#ED9572"/>
<circle cx="395.27" cy="228.167" fill="#FFBF94" r="36.537"/>
<path d="M395.27,250.526c-17.752,0-32.541-12.662-35.844-29.447c-0.451,2.293-0.693,4.663-0.693,7.089  c0,20.178,16.359,36.537,36.537,36.537c20.18,0,36.537-16.358,36.537-36.537c0-2.426-0.242-4.795-0.693-7.089  C427.813,237.864,413.021,250.526,395.27,250.526z" fill="#ED9572"/>
<path d="M381.613,174.635C378.756,106.41,325.84,51.97,253.646,51.939l0,0c-0.01,0-0.02,0-0.029,0  c-0.012,0-0.021,0-0.031,0l0,0c-72.194,0.031-125.109,54.471-127.966,122.696h-0.123v78.526h0.123  c2.857,68.224,60.131,100.865,127.966,100.884l0,0c0.01,0,0.02,0,0.031,0c0.01,0,0.02,0,0.029,0l0,0  c67.836-0.02,125.11-32.66,127.967-100.884h0.123v-78.526H381.613z" fill="#FFBF94"/>
<path d="M253.617,93.229c66.731,0,122.352,39.761,134.862,92.5c1.725-7.276,2.639-14.799,2.639-22.5  c0-63.513-61.563-115-137.5-115c-75.94,0-137.5,51.487-137.5,115c0,7.701,0.912,15.224,2.639,22.5  C131.264,132.99,186.885,93.229,253.617,93.229z" fill="#7C4E2E"/>
<path d="M218.116,150.85v-33.621c0-13.75,11.25-23,25-23c3.719,0,7.251-1.171,10.43,0.302  c-2.667-13.245-14.43-23.302-28.43-23.302c-15.95,0-29,13.05-29,29v39c0,15.95,13.05,29,29,29c0.025,0,0.052-0.002,0.077-0.002  C220.821,163.72,218.116,157.587,218.116,150.85z" fill="#7C4E2E"/>
<path d="M289.117,150.85v-33.621c0-13.75-11.25-23-25-23c-3.719,0-7.252-1.171-10.432,0.302  c2.666-13.245,14.43-23.302,28.432-23.302c15.949,0,29,13.05,29,29v39c0,15.95-13.051,29-29,29c-0.027,0-0.053-0.002-0.078-0.002  C286.412,163.72,289.117,157.587,289.117,150.85z" fill="#7C4E2E"/>
<circle cx="171.818" cy="262.522" fill="#F97A7A" r="30.538"/>
<circle cx="335.415" cy="262.522" fill="#F97A7A" r="30.538"/>
<circle cx="205.415" cy="209.081" fill="#493E2F" r="17.45"/>
<circle cx="301.515" cy="209.081" fill="#493E2F" r="17.45"/>
<path d="M254.162,286.401c-9.078,0-18.155-3.455-25.066-10.365c-2.343-2.344-2.343-6.143,0-8.486  c2.343-2.342,6.144-2.342,8.485,0c9.144,9.145,24.019,9.143,33.161,0c2.342-2.342,6.143-2.342,8.484,0  c2.344,2.344,2.344,6.143,0,8.486C272.316,282.946,263.24,286.401,254.162,286.401z" fill="#F97A7A"/>
</svg>