<!DOCTYPE svg PUBLIC "-//W3C//DTD SVG 1.1//EN" "http://www.w3.org/Graphics/SVG/1.1/DTD/svg11.dtd">
<!-- Uploaded to: SVG Repo, www.svgrepo.com, Transformed by: SVG Repo Mixer Tools -->
<svg height="800px" width="800px" version="1.1" id="Layer_1" xmlns="http://www.w3.org/2000/svg" xmlns:xlink="http://www.w3.org/1999/xlink" viewBox="0 0 512 512" xml:space="preserve" fill="#000000">
<g id="SVGRepo_bgCarrier" stroke-width="0"/>
<g id="SVGRepo_tracerCarrier" stroke-linecap="round" stroke-linejoin="round"/>
<g id="SVGRepo_iconCarrier"> <path style="fill:#666666;" d="M501.443,122.952c0,29.689-21.27,54.414-49.408,59.77c-15.482-38.387-38.613-64.417-68.313-81.4 c8.718-22.926,30.893-39.209,56.881-39.209C474.211,62.113,501.443,89.345,501.443,122.952z"/> <path style="fill:#ffffff;" d="M128.287,101.323C162.633,81.697,205.749,74.162,256,73.617c50.25,0.545,93.376,8.08,127.723,27.706 c29.7,16.983,52.83,43.013,68.313,81.4c8.902,22.052,15.276,48.174,18.926,79.015c19.234,162.41-95.072,187.35-214.962,188.131 c-119.89-0.781-234.196-25.721-214.962-188.131c3.649-30.821,10.013-56.933,18.906-78.974 C75.426,144.346,98.567,118.305,128.287,101.323z M255.64,378.245c12.84-0.041,23.234-10.455,23.234-23.295 c0-12.871-10.434-13.714-23.306-13.714c-12.872,0-23.295,0.843-23.295,13.714c0,12.861,10.425,23.295,23.295,23.295 C255.588,378.245,255.62,378.245,255.64,378.245z M421.864,275.102c0-32.177-26.081-58.259-58.259-58.259 c-32.167,0-58.248,26.081-58.248,58.259c0,32.178,26.081,58.259,58.248,58.259C395.782,333.36,421.864,307.279,421.864,275.102z M206.644,275.102c0-32.177-26.081-58.259-58.249-58.259c-32.177,0-58.259,26.081-58.259,58.259 c0,32.178,26.081,58.259,58.259,58.259C180.563,333.36,206.644,307.279,206.644,275.102z"/> <g> <path style="fill:#666666;" d="M363.604,216.843c32.177,0,58.259,26.081,58.259,58.259s-26.081,58.259-58.259,58.259 c-32.167,0-58.248-26.081-58.248-58.259S331.437,216.843,363.604,216.843z"/> <path style="fill:#666666;" d="M278.874,354.949c0,12.84-10.393,23.254-23.234,23.295c-0.02,0-0.052,0-0.072,0 c-12.871,0-23.295-10.434-23.295-23.295c0-12.871,10.425-13.714,23.295-13.714C268.439,341.235,278.874,342.078,278.874,354.949z"/> <path style="fill:#666666;" d="M148.396,216.843c32.167,0,58.249,26.081,58.249,58.259s-26.081,58.259-58.249,58.259 c-32.177,0-58.259-26.081-58.259-58.259S116.218,216.843,148.396,216.843z"/> <path style="fill:#666666;" d="M128.287,101.323c-29.721,16.983-52.862,43.023-68.344,81.441l-0.206-0.082 c-28.023-5.439-49.18-30.112-49.18-59.729c0-33.607,27.233-60.84,60.84-60.84C97.384,62.113,119.558,78.407,128.287,101.323z"/> </g> <path d="M440.605,51.557c-25.466,0-48.953,13.825-61.616,35.348c-8.945-4.36-18.549-8.136-28.699-11.25 c-5.574-1.712-11.478,1.421-13.188,6.995c-1.711,5.573,1.421,11.478,6.995,13.188c12.542,3.849,24.113,8.778,34.386,14.648 c28.894,16.523,49.751,41.444,63.764,76.189c8.638,21.396,14.772,47.068,18.232,76.303c6.588,55.634-2.364,96.449-27.369,124.776 c-39.652,44.918-115.472,51.152-177.103,51.556c-61.646-0.404-137.467-6.638-177.117-51.556 c-25.005-28.326-33.957-69.141-27.369-124.776c3.461-29.231,9.589-54.891,18.214-76.268c14.011-34.768,34.877-59.701,63.789-76.222 c30.388-17.363,69.31-25.725,122.479-26.314c9.985,0.111,19.599,0.508,28.579,1.182c0.269,0.021,0.536,0.03,0.802,0.03 c5.47,0,10.098-4.222,10.515-9.766c0.437-5.814-3.922-10.882-9.736-11.318c-7.099-0.534-14.565-0.902-22.275-1.101 c-0.603-0.107-1.219-0.172-1.853-0.172h-12.07c-0.647,0-1.278,0.068-1.894,0.178c-47.688,1.218-84.745,8.821-115.068,23.677 c-12.675-21.512-36.159-35.329-61.609-35.329C32.028,51.557,0,83.584,0,122.952c0,30.017,18.79,56.431,46.078,66.775 c-7.188,20.694-12.406,44.432-15.524,70.769c-7.234,61.082,3.703,108.601,32.508,141.231 c43.542,49.326,120.866,57.687,185.538,58.62c0.448,0.058,0.902,0.098,1.365,0.098c2.013,0,4.025-0.011,6.043-0.02 c2.004,0.011,4.015,0.02,6.028,0.02c0.463,0,0.916-0.04,1.364-0.098c64.662-0.931,141.994-9.291,185.539-58.62 c28.805-32.63,39.741-80.149,32.508-141.23c-3.115-26.329-8.333-50.066-15.527-70.767c27.301-10.338,46.08-36.727,46.08-66.778 C512,83.584,479.972,51.557,440.605,51.557z M21.113,122.952c0-27.726,22.556-50.282,50.282-50.282 c17.827,0,34.284,9.622,43.248,24.63c-26.47,17.267-46.455,41.22-60.757,72.804C34.495,162.911,21.113,144.217,21.113,122.952z M458.111,170.104c-14.303-31.58-34.282-55.532-60.748-72.804c8.954-15.007,25.409-24.63,43.242-24.63 c27.726,0,50.282,22.556,50.282,50.282C490.887,144.238,477.512,162.913,458.111,170.104z"/> <path d="M323.775,69.146c-1.937-0.368-3.889-0.719-5.856-1.051c-5.75-0.964-11.196,2.902-12.169,8.649 c-0.971,5.749,2.901,11.196,8.649,12.169c1.826,0.308,3.638,0.634,5.435,0.975c0.666,0.127,1.329,0.188,1.981,0.188 c4.97,0,9.397-3.527,10.359-8.589C333.264,75.76,329.503,70.233,323.775,69.146z"/> <path d="M148.395,206.285c-37.945,0-68.815,30.871-68.815,68.816c0,37.946,30.87,68.816,68.815,68.816 c37.939,0,68.806-30.871,68.806-68.816S186.335,206.285,148.395,206.285z M148.395,322.804c-26.303,0-47.702-21.399-47.702-47.703 s21.399-47.703,47.702-47.703c26.297,0,47.692,21.399,47.692,47.703S174.692,322.804,148.395,322.804z"/> <path d="M148.395,245.958c-16.07,0-29.142,13.073-29.142,29.142c0,5.829,4.727,10.557,10.557,10.557 c5.829,0,10.557-4.727,10.557-10.557c0-4.427,3.602-8.029,8.029-8.029s8.03,3.602,8.03,8.029c0,5.829,4.727,10.557,10.557,10.557 c5.829,0,10.557-4.727,10.557-10.557C177.539,259.031,164.465,245.958,148.395,245.958z"/> <path d="M363.605,343.917c37.945,0,68.815-30.871,68.815-68.816s-30.87-68.816-68.815-68.816c-37.939,0-68.806,30.871-68.806,68.816 S325.665,343.917,363.605,343.917z M363.605,227.399c26.303,0,47.702,21.399,47.702,47.703s-21.399,47.703-47.702,47.703 c-26.297,0-47.692-21.399-47.692-47.703S337.307,227.399,363.605,227.399z"/> <path d="M345.017,285.658c5.829,0,10.557-4.727,10.557-10.557c0-4.427,3.603-8.029,8.03-8.029s8.029,3.602,8.029,8.029 c0,5.829,4.727,10.557,10.557,10.557c5.829,0,10.557-4.727,10.557-10.557c0-16.07-13.073-29.142-29.142-29.142 c-16.069,0-29.144,13.073-29.144,29.142C334.461,280.931,339.188,285.658,345.017,285.658z"/> <path d="M217.428,427.013c15.68,0,29.644-7.446,38.572-18.978c8.928,11.532,22.892,18.978,38.572,18.978 c5.829,0,10.557-4.727,10.557-10.557s-4.727-10.557-10.557-10.557c-12.423,0-22.957-8.235-26.436-19.532 c12.461-5.008,21.295-17.211,21.295-31.418c0-10.112-4.688-17.704-13.201-21.377c-6.189-2.67-13.601-2.894-20.661-2.894 s-14.47,0.224-20.658,2.895c-8.509,3.673-13.194,11.265-13.194,21.376c0,14.516,9.186,26.925,22.049,31.726 c-3.573,11.139-14.027,19.226-26.337,19.226c-5.829,0-10.557,4.727-10.557,10.557S211.598,427.013,217.428,427.013z M243.031,353.062c1.351-0.843,5.565-1.271,12.537-1.271c6.978,0,11.195,0.429,12.549,1.274c0.072,0.235,0.201,0.807,0.201,1.883 c0,7.002-5.702,12.716-12.749,12.739c-7.024,0-12.739-5.714-12.739-12.739C242.829,353.871,242.957,353.298,243.031,353.062z"/> </g>
</svg>