<?xml version="1.0" encoding="utf-8"?>
<!-- Uploaded to: SVG Repo, www.svgrepo.com, Generator: SVG Repo Mixer Tools -->
<svg width="800px" height="800px" viewBox="0 0 128 128" xmlns="http://www.w3.org/2000/svg" xmlns:xlink="http://www.w3.org/1999/xlink" aria-hidden="true" role="img" class="iconify iconify--noto" preserveAspectRatio="xMidYMid meet">
<path d="M57.15 2.83c-41.01 0-40.68 37.92-40.68 38.52c0 24.56 1.88 59.25 11.71 72.9c3.9 5.41 11.43 5.71 11.43 5.71l16.97-.03l16.97.03s7.54-.3 11.43-5.71c9.83-13.65 11.71-48.34 11.71-72.9c-.01-.61 1.47-38.52-39.54-38.52z" fill="#543930">
</path>
<radialGradient id="IconifyId17ecdb2904d178eab21725" cx="56.579" cy="69.608" r="47.532" gradientTransform="matrix(1 0 0 -1.1901 0 141.23)" gradientUnits="userSpaceOnUse">
<stop offset=".794" stop-color="#6d4c41" stop-opacity="0">
</stop>
<stop offset="1" stop-color="#6d4c41">
</stop>
</radialGradient>
<path d="M57.15 2.83c-41.01 0-40.68 37.92-40.68 38.52c0 24.56 1.88 59.25 11.71 72.9c3.9 5.41 11.43 5.71 11.43 5.71l16.97-.03l16.97.03s7.54-.3 11.43-5.71c9.83-13.65 11.71-48.34 11.71-72.9c-.01-.61 1.47-38.52-39.54-38.52z" fill="url(#IconifyId17ecdb2904d178eab21725)">
</path>
<linearGradient id="IconifyId17ecdb2904d178eab21726" gradientUnits="userSpaceOnUse" x1="4.115" y1="18.201" x2="108.115" y2="18.201" gradientTransform="matrix(1 0 0 -1 0 128)">
<stop offset=".001" stop-color="#e3e3e3">
</stop>
<stop offset="1" stop-color="#c9c9c9">
</stop>
</linearGradient>
<path d="M56.25 95.68h-.13c-25.49.03-52 7.28-52 25.06v3.18h104v-3.18c-.01-16.76-26.27-25.06-51.87-25.06z" fill="url(#IconifyId17ecdb2904d178eab21726)">
</path>
<path d="M64.89 90.08H46.73v9.98c0 4.51 3.7 8.17 8.26 8.17h1.65c4.56 0 8.26-3.66 8.26-8.17v-9.98h-.01z" fill="#e59600">
</path>
<linearGradient id="IconifyId17ecdb2904d178eab21727" gradientUnits="userSpaceOnUse" x1="67.607" y1="36.373" x2="64.082" y2="21.689" gradientTransform="matrix(1 0 0 -1 0 128)">
<stop offset="0" stop-color="#0053ab">
</stop>
<stop offset=".362" stop-color="#0068bf">
</stop>
<stop offset="1" stop-color="#008ee3">
</stop>
</linearGradient>
<path d="M71.54 95.16c1.45 2.18 1.64 7.04-2.61 11.15c-2.49 2.4-6.74 2.73-10.03 2.64c-.67-.02-1.44-.16-1.76-.81c-.36-.73.11-1.68.76-2.1c.65-.42 1.42-.51 2.14-.75c1.51-.51 3.9-3.31 4.46-7.46c.36-2.67.13-3.89.19-4.74c.04-.67 5.75.42 6.85 2.07z" fill="url(#IconifyId17ecdb2904d178eab21727)">
</path>
<linearGradient id="IconifyId17ecdb2904d178eab21728" gradientUnits="userSpaceOnUse" x1="38.431" y1="31.695" x2="59.107" y2="17.732" gradientTransform="matrix(1 0 0 -1 0 128)">
<stop offset=".001" stop-color="#008ee3">
</stop>
<stop offset="1" stop-color="#0053ab">
</stop>
</linearGradient>
<path d="M41.35 106.62c5.15 3.8 11.58 5.17 17.75 3.6c.85-.22 1.86-.68 1.91-1.56c.06-1.18-1.55-2.4-2.7-2.57c-2.95-.44-6.33-1.94-8.23-4.25c-1.68-2.05-2.43-3.61-2.37-7.37c.02-1.47-6.69-.18-8.4.71c-2.58 1.33-3.94 7.02 2.04 11.44z" fill="url(#IconifyId17ecdb2904d178eab21728)">
</path>
<linearGradient id="IconifyId17ecdb2904d178eab21729" gradientUnits="userSpaceOnUse" x1="-317.799" y1="47.326" x2="-317.799" y2="32.527" gradientTransform="matrix(.812 -.0076 .0076 -.8119 317.572 146.42)">
<stop offset="0" stop-color="#0053ab">
</stop>
<stop offset="1" stop-color="#008ee3">
</stop>
</linearGradient>
<path d="M56.89 113.5c.19 4.44 2.5 5.89 1.14 9.45c2.23-1.42 3.77-3.82 4.41-6.39c.64-2.57.41-5.3-.38-7.8c-.22-.71-.51-1.44-1.07-1.93c-2.74-2.4-4.17 5-4.1 6.67z" fill="url(#IconifyId17ecdb2904d178eab21729)">
</path>
<linearGradient id="IconifyId17ecdb2904d178eab21730" gradientUnits="userSpaceOnUse" x1="62.84" y1="20.52" x2="72.114" y2="14.204" gradientTransform="matrix(1 0 0 -1 0 128)">
<stop offset="0" stop-color="#0053ab">
</stop>
<stop offset="1" stop-color="#008ee3">
</stop>
</linearGradient>
<path d="M65.92 114.04c4.41 1.9 6.73.39 9.61 4.98c.22-3.24-1.03-6.5-3.11-8.97s-4.96-4.2-8.02-5.19c-.88-.28-1.81-.51-2.71-.3c-4.4 1.03.26 7.77 4.23 9.48z" fill="url(#IconifyId17ecdb2904d178eab21730)">
</path>
<ellipse transform="rotate(-11.847 59.398 107.405)" cx="59.41" cy="107.4" rx="5.3" ry="3.35" fill="#1565c0">
</ellipse>
<path d="M56.12 16.04c-17.2 0-33.13 12.79-33.13 39.91c0 21.79 13.49 34.67 25.23 38.83c2.8.99 5.5 1.49 7.9 1.49c2.38 0 5.07-.49 7.85-1.47c11.76-4.14 25.28-17.03 25.28-38.84c0-27.13-15.93-39.92-33.13-39.92z" fill="#ffca28">
</path>
<path d="M60.17 68.05c-.1-.04-.21-.07-.32-.08h-6.99c-.11.01-.21.04-.32.08c-.63.26-.98.91-.68 1.61s1.69 2.66 4.49 2.66s4.19-1.96 4.49-2.66c.31-.69-.03-1.35-.67-1.61z" fill="#e59600">
</path>
<g fill="#404040">
<ellipse cx="40.12" cy="58.87" rx="4.87" ry="5.04">
</ellipse>
<ellipse cx="72.61" cy="58.87" rx="4.87" ry="5.04">
</ellipse>
</g>
<g fill="#6d4c41">
<path d="M47.35 49.82c-.93-1.23-3.07-3.01-7.23-3.01s-6.31 1.79-7.23 3.01c-.41.54-.31 1.17-.02 1.55c.26.35 1.04.68 1.9.39s2.54-1.16 5.35-1.18c2.81.02 4.49.89 5.35 1.18s1.64-.03 1.9-.39c.28-.38.39-1.01-.02-1.55z">
</path>
<path d="M79.85 49.82c-.93-1.23-3.07-3.01-7.23-3.01s-6.31 1.79-7.23 3.01c-.41.54-.31 1.17-.02 1.55c.26.35 1.04.68 1.9.39s2.54-1.16 5.35-1.18c2.81.02 4.49.89 5.35 1.18s1.64-.03 1.9-.39c.27-.38.38-1.01-.02-1.55z">
</path>
</g>
<path d="M64.43 76.14c-3.15 1.87-13.46 1.87-16.61 0c-1.81-1.07-3.65.57-2.9 2.21c.74 1.61 6.37 5.36 11.23 5.36s10.42-3.75 11.16-5.36c.75-1.64-1.07-3.29-2.88-2.21z" fill="#795548">
</path>
<g>
<path d="M109.33 66.8l-3.58 12.62l1.03.23c1.1.25 2.09.69 3.05 1.11c.35.15.69.3 1.02.44l1.01.41l3.96-12.89l-6.49-1.92z" fill="#a7a9ac">
</path>
<path d="M111.61 79.35c-.32-.13-.64-.27-.97-.42c-1-.44-2.13-.94-3.42-1.23l-.93-.21l-13.13 46.33h5.73l13.56-44.13l-.84-.34z" fill="#603913">
</path>
<linearGradient id="IconifyId17ecdb2904d178eab21731" gradientUnits="userSpaceOnUse" x1="100.34" y1="39.008" x2="99.782" y2="-6.48" gradientTransform="matrix(1 0 0 -1 0 128)">
<stop offset=".002" stop-color="#ffdbb5">
</stop>
<stop offset="1" stop-color="#a97c50">
</stop>
</linearGradient>
<path d="M105.54 89.1c-3.07 0-6.43.67-10.01 2.14c-7.87 3.25-13.02 10.14-16.36 17.53c-1.7 3.78-2.55 7.49-2.93 11.46c-.12 1.22-.14 2.42-.03 3.7h43.04c10.37-16.73 2.28-34.83-13.71-34.83z" fill="url(#IconifyId17ecdb2904d178eab21731)">
</path>
<path d="M98.95 99.02c-.34-1.75-1.85-3.31-3.67-3.43c-2.08-.14-3.15 1.66-3.67 3.41c-.52 1.75-.55 3.76.65 5.25c1.32 1.64 3.72 1.57 5.01-.04c.47-.58.82-1.32 1.04-2.1c.63-.86.86-1.99.64-3.09z" fill="#00aeef">
</path>
<path d="M110.32 93.93c-1.73-1.12-4.33-.09-5.85.97c-1.71 1.18-2.96 3.48-2.02 5.54c.93 2.02 3.41 2.62 5.36 1.83c1.71-.7 3.65-2.57 3.6-4.54c.49-1.38.35-2.88-1.09-3.8z" fill="#00c853">
</path>
<path d="M115.48 103.22c-1.68-.09-3.47.7-4.76 1.74c-1.41 1.13-2.4 2.84-1.49 4.61c.84 1.61 2.79 2.18 4.48 1.99c1.59-.17 3.12-1.09 4-2.43c.32-.48.54-1.05.59-1.62c.12-.31.22-.64.26-1c.24-1.9-1.3-3.19-3.08-3.29z" fill="#fff200">
</path>
<path d="M111.88 116.54c-.81-1.25-2.38-1.71-3.78-1.98c-1.61-.31-3.49-.16-4.75 1.03c-1.48 1.39-1.19 3.58.46 4.67c.34.22.74.41 1.17.57c1.48 1.12 3.4.79 5.02.19c1.25-.47 2.28-1.57 2.34-2.85c0-.02.01-.03.01-.05c.08-.68-.12-1.21-.47-1.58z" fill="#ef4136">
</path>
<path d="M119.5 68.21c-.15.55-.39 1.08-.73 1.68c-.16.28-.34.55-.53.8c-1.39 1.84-3.51 2.91-5.66 2.91c-.68 0-1.35-.1-2.01-.32c-2.32-.77-3.9-2.5-4.39-4.75a6.13 6.13 0 0 1-.16-1.15c-.07-1.15.19-2.38.78-3.77c.52-1.22 1.24-2.29 1.93-3.33c.52-.79 1.01-1.54 1.43-2.33c.32-.64 1.48-3.35 1.94-4.86a1.5 1.5 0 0 1 1.16-1.04a1.5 1.5 0 0 1 1.47.53l.04.04c2.55 3.15 6.82 8.4 4.73 15.59z" fill="#00aeef">
</path>
<path d="M118.24 70.69c-1.39 1.84-3.51 2.91-5.66 2.91c-.68 0-1.35-.1-2.01-.32c-2.32-.77-3.9-2.5-4.39-4.75c4.21 2.72 4.77-5.36 9.23-5.3c3.87.05.03 6.57 2.83 7.46z" fill="#d1d3d4">
</path>
</g>
<g>
<path d="M57.15 2.83c-41.01 0-40.68 37.92-40.68 38.52c0 7.76.19 16.53.75 25.32l6.72-.02c-.06-2.92 1.99-20.97 8.08-22.34c22.36-5.03 35.01-16.89 35.01-16.89c3.29 7.18 13.58 14.19 17.27 16.86c3.03 2.19 3.96 18.55 3.9 22.38h7.71c0-.05.02-.1.02-.16c.56-8.75.74-17.46.74-25.17c.01-.59 1.49-38.5-39.52-38.5z" fill="#543930">
</path>
<radialGradient id="IconifyId17ecdb2904d178eab21732" cx="56.913" cy="65.584" r="49.788" gradientTransform="matrix(1 0 0 -1.2135 0 142.005)" gradientUnits="userSpaceOnUse">
<stop offset=".794" stop-color="#6d4c41" stop-opacity="0">
</stop>
<stop offset="1" stop-color="#6d4c41">
</stop>
</radialGradient>
<path d="M57.15 2.83c-41.01 0-40.68 37.92-40.68 38.52c0 7.76.19 16.53.75 25.32l6.72-.02c-.06-2.92 1.99-20.97 8.08-22.34c22.36-5.03 35.01-16.89 35.01-16.89c3.29 7.18 13.58 14.19 17.27 16.86c3.03 2.19 3.96 18.55 3.9 22.38h7.71c0-.05.02-.1.02-.16c.56-8.75.74-17.46.74-25.17c.01-.59 1.49-38.5-39.52-38.5z" fill="url(#IconifyId17ecdb2904d178eab21732)">
</path>
</g>
</svg>